<svg t="1711249469654" class="icon" viewBox="0 0 1026 1024" version="1.1" xmlns="http://www.w3.org/2000/svg" p-id="3890" id="mx_n_1711249469655" width="48" height="48"><path d="M77.281 125.463c49.178-49.213 114.53-76.311 184.055-76.311h0.02c69.525 0 134.896 27.098 184.054 76.31l410.652 410.904-0.038 0.039 116.337 116.42c70.217 70.266 70.217 184.627 0 254.874-34.003 34.067-79.238 52.813-127.357 52.813-48.12 0-93.355-18.746-127.358-52.812L484.99 674.9l0.192-0.193-278.121-278.336c-18.867-18.88-29.271-43.996-29.271-70.69 0-26.696 10.405-51.811 29.271-70.693 18.848-18.88 43.927-29.292 70.622-29.292s51.774 10.412 70.64 29.292l445.713 446.01-27.848 27.868-445.713-446.009c-22.848-22.864-62.698-22.864-85.565 0-11.425 11.433-17.733 26.637-17.733 42.823 0 16.185 6.308 31.39 17.733 42.822l505.237 505.595-0.192 0.192 5.539 5.542c26.58 26.618 61.91 41.264 99.51 41.264 37.598 0 72.93-14.646 99.508-41.264 54.85-54.89 54.85-144.23 0-199.138l-232.656-232.82 0.02-0.039-294.315-294.503c-41.735-41.764-97.202-64.763-156.206-64.763-59.005 0-114.49 22.999-156.225 64.763-41.734 41.745-64.718 97.27-64.718 156.316s22.983 114.573 64.718 156.336l461.887 462.233-27.848 27.87L77.28 493.851C28.104 444.639 1.024 379.242 1.024 309.647s27.08-134.992 76.257-184.184z" fill="#FD417E" p-id="3891"></path></svg>